<svg width="64" height="64" xmlns="http://www.w3.org/2000/svg">

 <g>
  <title>background</title>
  <rect fill="none" id="canvas_background" height="402" width="582" y="-1" x="-1"/>
 </g>
 <g>
  <title>Layer 1</title>
  <path id="svg_9" fill="#3baacf" d="m18.5,38c-6.2,-10.4 -16.5,-6.1 -16.5,-6.1s14.7,-14.7 24.6,-4.8l-8.1,10.9z"/>
  <path id="svg_10" fill="#428bc1" d="m23.3,30.3l3.2,-3.2c-9.8,-9.9 -24.5,4.8 -24.5,4.8s12.9,-9.2 21.3,-1.6"/>
  <path id="svg_11" fill="#3baacf" d="m26,45.5c10.4,6.2 6.1,16.5 6.1,16.5s14.7,-14.7 4.8,-24.6l-10.9,8.1z"/>
  <path id="svg_12" fill="#428bc1" d="m33.7,40.7l3.2,-3.2c9.9,9.9 -4.8,24.6 -4.8,24.6s9.2,-13 1.6,-21.4"/>
  <path id="svg_13" fill="#c5d0d8" d="m48.8,30.9c-11.7,11.6 -24.6,17.9 -29.1,13.4c-4.5,-4.5 1.8,-17.4 13.4,-29.1c13.6,-13.6 28.7,-13 28.7,-13s0.5,15.1 -13,28.7"/>
  <path id="svg_14" fill="#dae3ea" d="m45.8,27.6c-11.6,11.6 -23.2,19.2 -25.9,16.5c-2.7,-2.7 4.9,-14.3 16.5,-25.9c13.6,-13.6 25.6,-16.2 25.6,-16.2s-2.6,12 -16.2,25.6z"/>
  <path id="svg_15" fill="#c94747" d="m24.3,47.5c-0.5,0.5 -1.3,0.5 -1.8,0l-6,-6c-0.5,-0.5 -0.5,-1.4 0,-1.9l1.8,-1.8l7.8,7.8l-1.8,1.9"/>
  <path id="svg_16" fill="#f15744" d="m22.6,45.7c-0.5,0.5 -1.1,0.7 -1.4,0.4l-3.4,-3.4c-0.3,-0.3 -0.1,-0.9 0.4,-1.4l1.8,-1.8l4.4,4.4l-1.8,1.8"/>
  <path id="svg_17" fill="#3e4347" d="m20.9,48.2c-0.3,0.3 -1,0.3 -1.3,0l-3.9,-3.9c-0.3,-0.3 -0.2,-0.9 0.1,-1.2l1.2,-1.2l5.1,5.1l-1.2,1.2"/>
  <path id="svg_18" fill="#62727a" d="m20.1,47.4c-0.3,0.3 -0.9,0.4 -1.1,0.2l-2.7,-2.7c-0.2,-0.2 -0.1,-0.7 0.3,-1l1.2,-1.2l3.5,3.5l-1.2,1.2"/>
  <path id="svg_19" fill="#c94747" d="m61.8,2.2c0,0 -5.4,-0.2 -12.7,2.6l10.1,10.1c2.8,-7.3 2.6,-12.7 2.6,-12.7"/>
  <path id="svg_20" fill="#f15744" d="m61.8,2.2c0,0 -4.3,0.9 -10.8,4.6l6.2,6.2c3.7,-6.5 4.6,-10.8 4.6,-10.8"/>
  <circle id="svg_21" fill="#edf4f9" r="5" cy="20.5" cx="43.5"/>
  <circle id="svg_22" fill="#3baacf" r="3.3" cy="20.5" cx="43.5"/>
  <circle id="svg_23" fill="#edf4f9" r="5" cy="30.5" cx="33.5"/>
  <circle id="svg_24" fill="#3baacf" r="3.3" cy="30.5" cx="33.5"/>
  <g id="svg_25" fill="#fff">
   <path id="svg_26" d="m48.9,6.9c-0.3,0.3 -0.9,0.3 -1.2,0c-0.3,-0.3 -0.3,-0.9 0,-1.2c0.3,-0.3 0.9,-0.3 1.2,0c0.3,0.3 0.3,0.9 0,1.2"/>
   <circle id="svg_27" r="0.8" cy="8.6" cx="50.6"/>
   <circle id="svg_28" r="0.8" cy="11" cx="53"/>
   <circle id="svg_29" r="0.8" cy="13.4" cx="55.3"/>
   <circle id="svg_30" r="0.8" cy="15.7" cx="57.7"/>
  </g>
 </g>
</svg>